<svg width="24" height="18" fill="none" xmlns="http://www.w3.org/2000/svg"><path fill-rule="evenodd" clip-rule="evenodd" d="M.894 7.207a15.188 15.188 0 00-.788 1.346 1 1 0 000 .894c.14.281.404.75.788 1.346a20.44 20.44 0 002.251 2.89C5.661 16.368 8.62 18 12 18c3.38 0 6.339-1.633 8.855-4.316a20.483 20.483 0 002.25-2.891 15.36 15.36 0 00.79-1.346 1 1 0 000-.894 15.36 15.36 0 00-.79-1.346 20.491 20.491 0 00-2.25-2.89C18.339 1.631 15.38 0 12 0 8.62 0 5.661 1.632 3.145 4.316a20.493 20.493 0 00-2.25 2.891zm3.71 5.11A18.52 18.52 0 012.142 9a18.513 18.513 0 012.464-3.316C6.776 3.368 9.255 2 12 2s5.224 1.368 7.395 3.684A18.513 18.513 0 0121.86 9a18.52 18.52 0 01-2.464 3.316C17.224 14.632 14.745 16 12 16s-5.224-1.367-7.395-3.684zM12 13a4 4 0 110-8 4 4 0 010 8zm2-4a2 2 0 11-4 0 2 2 0 014 0z" fill="#B5B5B5"/></svg>